<svg xmlns="http://www.w3.org/2000/svg" viewBox="0 0 192 192"><path d="M11.01 6.317v28.597h169.98V6.317A6.318 6.318 0 0 0 174.671 0H17.329a6.318 6.318 0 0 0-6.319 6.317zM141.567 8.5a7 7 0 1 1 0 14 7 7 0 0 1 0-14zm-91.134 0a7 7 0 1 1 0 14 7 7 0 0 1 0-14zM3.426 56.231l7.583 50.194v79.257a6.318 6.318 0 0 0 6.319 6.317h157.343a6.318 6.318 0 0 0 6.319-6.317V106.425l7.583-50.194a6.32 6.32 0 0 0-6.319-6.317H9.746a6.32 6.32 0 0 0-6.32 6.317zm108.548 27.337l27.661-2.9v79.331H129V91.571l-17.026.161v-8.164zm-65.957 56.128l.107-.322h10.098c0 3.796 1.37 6.991 4.109 9.588 2.739 2.596 6.275 3.894 10.608 3.894 4.297 0 7.681-1.334 10.151-4.001 2.471-2.668 3.706-6.15 3.706-10.447 0-4.905-1.137-8.575-3.411-11.011-2.274-2.435-5.846-3.652-10.715-3.652h-8.701v-8.218h8.701c4.727 0 8.065-1.173 10.017-3.518 1.951-2.346 2.927-5.631 2.927-9.856 0-3.938-1.066-7.116-3.196-9.534-2.131-2.416-5.291-3.625-9.48-3.625-4.082 0-7.457 1.262-10.124 3.787-2.668 2.523-4.002 5.685-4.002 9.48H46.715l-.161-.322c-.18-5.872 2.041-10.885 6.66-15.039 4.619-4.153 10.527-6.23 17.725-6.23 7.269 0 12.962 1.835 17.08 5.505 4.117 3.671 6.177 9.069 6.177 16.194 0 3.652-.958 6.982-2.873 9.99-1.916 3.008-4.592 5.354-8.03 7.036 3.938 1.576 6.937 3.966 8.997 7.17 2.059 3.205 3.088 7.082 3.088 11.629 0 7.162-2.265 12.774-6.795 16.838-4.53 4.064-10.412 6.097-17.644 6.097-6.66 0-12.524-1.96-17.59-5.882-5.068-3.922-7.512-9.105-7.332-15.551z"/></svg>