<svg width="16" height="16" viewBox="874 14 16 16"><path fill="#828282" d="M888.6 21.5c.4 0 .7.1 1 .4.3.3.4.6.4 1 0 .6-.3 1-.9 1.2l-1.7.6.5 1.6c0 .1.1.3.1.5 0 .4-.1.7-.4 1s-.6.4-1 .4c-.3 0-.6-.1-.8-.3-.2-.2-.4-.4-.5-.7l-.5-1.6-3 1 .5 1.6c.1.2.1.3.1.5 0 .4-.1.7-.4 1-.3.3-.6.4-1 .4-.3 0-.6-.1-.8-.3s-.4-.4-.5-.7l-.5-1.6-1.5.5c-.2.1-.3.1-.5.1-.4 0-.7-.1-1-.4-.3-.3-.4-.6-.4-1 0-.3.1-.6.3-.8s.4-.4.7-.5l1.5-.5-1-3-1.5.5c-.2.1-.3.1-.5.1-.4 0-.7-.1-1-.4s-.4-.6-.4-1c0-.3.1-.6.3-.8.2-.2.4-.4.7-.5l1.5-.5-.5-1.5c-.1-.2-.1-.3-.1-.5 0-.4.1-.7.4-1 .3-.3.6-.4 1-.4.3 0 .6.1.8.3s.4.4.5.7l.5 1.5 3-1-.5-1.5c-.1-.2-.1-.3-.1-.5 0-.4.1-.7.4-1 .3-.3.6-.4 1-.4.3 0 .6.1.8.3.2.2.4.4.5.7l.5 1.5 1.6-.5c.1 0 .3-.1.4-.1.4 0 .7.1 1 .4.3.3.4.6.4.9 0 .3-.1.5-.3.8s-.4.4-.7.5l-1.5.5 1 3 1.6-.5h.5zM881 24l3-1-1-3-3 1 1 3z"/></svg>