<svg xmlns="http://www.w3.org/2000/svg" viewBox="0 0 90 70.2"><path fill="#FFFFFF" d="M80.1 5.2c-5.5 0-9.9 4.4-9.9 9.9 0 2 .6 3.8 1.5 5.3L53 44.2c2.2 1.1 4.2 2.7 5.8 4.5l18.9-24c.8.2 1.6.3 2.4.3 5.5 0 9.9-4.4 9.9-9.9 0-5.4-4.4-9.9-9.9-9.9zM45 50.4c-1 0-1.9.1-2.8.4L23.5 26.9c-1.6 1.9-3.6 3.4-5.8 4.5l18.7 23.9c-.9 1.5-1.3 3.2-1.3 5 0 5.5 4.4 9.9 9.9 9.9s9.9-4.4 9.9-9.9-4.4-9.9-9.9-9.9zM62.7 10.3c.7-2.4 1.8-4.7 3.4-6.6C59.4 1.3 52.3 0 45 0 34.6 0 24.7 2.6 15.8 7.5c-1.6-1.2-3.7-1.9-5.9-1.9C4.4 5.5 0 10 0 15.4c0 5.5 4.4 9.9 9.9 9.9s9.9-4.4 9.9-9.9c0-.6-.1-1.2-.2-1.7C27.4 9.5 36 7.3 45 7.3c6.1 0 12.1 1 17.7 3z"/></svg>