<svg xmlns="http://www.w3.org/2000/svg" width="30" height="23.4" viewBox="23 -13.2 30 23.4"><path fill="#fff" d="M49.7-11.5c-1.8 0-3.3 1.5-3.3 3.3 0 .7.2 1.3.5 1.8l-6.2 7.9c.7.4 1.4.9 1.9 1.5l6.3-8c.3.1.5.1.8.1 1.8 0 3.3-1.5 3.3-3.3 0-1.8-1.5-3.3-3.3-3.3zM38 3.6c-.3 0-.6 0-.9.1l-6.2-8c-.5.6-1.2 1.1-1.9 1.5l6.2 8c-.3.5-.4 1.1-.4 1.7 0 1.8 1.5 3.3 3.3 3.3s3.3-1.5 3.3-3.3-1.6-3.3-3.4-3.3zm5.9-13.4c.2-.8.6-1.6 1.1-2.2-2.2-.8-4.6-1.2-7-1.2-3.5 0-6.8.9-9.7 2.5-.5-.4-1.2-.6-2-.6-1.8 0-3.3 1.5-3.3 3.3 0 1.8 1.5 3.3 3.3 3.3 1.8 0 3.3-1.5 3.3-3.3 0-.2 0-.4-.1-.6 2.6-1.4 5.5-2.1 8.5-2.1 2-.1 4 .3 5.9.9z"/></svg>