<?xml version="1.0" encoding="utf-8"?>
<!-- Generator: Adobe Illustrator 21.1.0, SVG Export Plug-In . SVG Version: 6.00 Build 0)  -->
<!DOCTYPE svg PUBLIC "-//W3C//DTD SVG 1.1//EN" "http://www.w3.org/Graphics/SVG/1.1/DTD/svg11.dtd">
<svg version="1.1" id="Layer_1" xmlns="http://www.w3.org/2000/svg" xmlns:xlink="http://www.w3.org/1999/xlink" x="0px" y="0px"
	 viewBox="0 0 85.8 13" style="enable-background:new 0 0 85.8 13;" xml:space="preserve">
<style type="text/css">
	.st0{fill:#FFFFFF;}
</style>
<title>Asset 1SVG</title>
<g id="Layer_2">
	<g id="Layer_1-2">
		<g id="Layer_2-2">
			<g id="Layer_1-2-2">
				<path class="st0" d="M6.5,0L6.5,0C2.9,0,0,2.9,0,6.5l0,0C0,10.1,2.9,13,6.5,13l0,0c3.6,0,6.5-2.9,6.5-6.5l0,0
					C13,2.9,10.1,0,6.5,0z M2.4,6.2c-0.5,0-0.9-0.4-0.9-0.9s0.4-0.9,0.9-0.9c0.2,0,0.3,0,0.5,0.1c2-1.5,4.6-1.6,6.7-0.4
					C9.4,4.3,9.3,4.4,9.2,4.6C7.3,3.6,5,3.7,3.3,5c0.2,0.5-0.1,1-0.5,1.1C2.6,6.2,2.5,6.2,2.4,6.2L2.4,6.2z M6.5,10.3
					c-0.5,0-0.9-0.4-0.9-0.9c0-0.1,0-0.3,0.1-0.4L3.3,6.6c0.2-0.1,0.3-0.3,0.5-0.5l2.4,2.4c0.5-0.2,1,0,1.2,0.5s0,1-0.5,1.2
					C6.7,10.3,6.6,10.3,6.5,10.3L6.5,10.3z M10.6,6.2c-0.1,0-0.2,0-0.4-0.1L7.8,8.5C7.7,8.3,7.5,8.2,7.3,8l2.4-2.4
					c-0.2-0.5,0-1,0.5-1.2s1,0,1.2,0.5s0,1-0.5,1.2C10.9,6.2,10.7,6.2,10.6,6.2L10.6,6.2z"/>
				<path class="st0" d="M20.2,4.7h-1.9v4.6h-1.5V4.7H15V3.6h5.3L20.2,4.7L20.2,4.7z"/>
				<path class="st0" d="M24.6,7.2c0,1.4-0.9,2.3-2.3,2.3S20,8.6,20,7.2s0.8-2.3,2.3-2.3S24.6,5.7,24.6,7.2z M21.5,7.2
					c0,0.9,0.3,1.2,0.8,1.2s0.8-0.4,0.8-1.2c0-0.9-0.3-1.2-0.8-1.2S21.5,6.3,21.5,7.2L21.5,7.2z"/>
				<path class="st0" d="M32.6,6.4v2.9h-1.5V6.8c0-0.6-0.2-0.8-0.6-0.8s-0.8,0.3-0.8,1v2.3h-1.5V6.8c0-0.6-0.3-0.8-0.6-0.8
					s-0.8,0.3-0.8,1v2.3h-1.5V5h1.3v0.8c0.2-0.6,0.8-1,1.5-0.9c0.6,0,1.2,0.3,1.4,0.9c0.3-0.6,0.8-0.9,1.5-0.9
					c0.8,0,1.4,0.5,1.5,1.3C32.6,6.3,32.6,6.4,32.6,6.4z"/>
				<path class="st0" d="M37.9,7.6h-3c0,0.5,0.4,0.8,0.9,0.8l0,0c0.3,0,0.7-0.2,0.8-0.5l1.2,0.4c-0.3,0.8-1,1.2-2,1.2
					c-1.5,0-2.4-0.8-2.4-2.3c-0.1-1.1,0.7-2.2,1.8-2.3c0.1,0,0.3,0,0.4,0c1.4,0,2.2,0.8,2.2,2.2C37.9,7.3,37.9,7.4,37.9,7.6z
					 M34.9,6.8h1.6c-0.1-0.6-0.3-0.9-0.8-0.9C35.3,5.9,35,6.2,34.9,6.8z"/>
				<path class="st0" d="M38.4,8.7l0.8-0.8c0.3,0.4,0.8,0.7,1.3,0.6c0.4,0,0.7-0.1,0.7-0.3S41,7.9,40.4,7.8
					c-1.3-0.3-1.8-0.7-1.8-1.4S39.3,5,40.7,5c1,0,1.6,0.3,2,0.8l-0.8,0.8c-0.2-0.4-0.7-0.7-1.2-0.6C40.3,6,40,6.2,40,6.3
					c0,0.2,0.2,0.3,0.8,0.4c1.3,0.2,1.8,0.6,1.8,1.4s-0.7,1.5-2.1,1.5C39.8,9.5,39,9.2,38.4,8.7z"/>
				<path class="st0" d="M47.8,6.4v2.9h-1.5V6.8C46.3,6.2,46,6,45.7,6s-0.8,0.3-0.8,1v2.3h-1.5V3.1h1.5v2.7c0.2-0.6,0.8-0.9,1.4-0.9
					c0.8-0.1,1.5,0.5,1.5,1.3C47.8,6.3,47.8,6.3,47.8,6.4z"/>
			</g>
		</g>
	</g>
</g>
</svg>
